# xmcd
# Track frame offsets:
# 150
# 15252
# 31817
# 45507
# 59960
# 73614
#
# Disc length: 1215 seconds
# Revision: 0
# Processed by: cddbd v1.4PL0 Copyright (c) Steve Scherf et al.
# Submitted via: VisiTrax 2.9.5.180 - For more info visit www.synapsa.com
#
DISCID=4804bd06
DTITLE=Dave Clark - Country revival
DYEAR=1999
DGENRE=
TTITLE0=Don't rock the jukebox
TTITLE1=Country revival
TTITLE2=The fireman
TTITLE3=I'm so lonesome I could cry
TTITLE4=Honkytonk blues
TTITLE5=Youe cheatin' heart
EXTD=
EXTT0=
EXTT1=
EXTT2=
EXTT3=
EXTT4=
EXTT5=
PLAYORDER=
